<svg width="64" height="64" viewBox="0 0 64 64" fill="none" xmlns="http://www.w3.org/2000/svg">
<mask id="mask0_887_3320" style="mask-type:alpha" maskUnits="userSpaceOnUse" x="0" y="0" width="64" height="64">
<rect width="64" height="64" fill="#D9D9D9"/>
</mask>
<g mask="url(#mask0_887_3320)">
<path d="M11.4667 56C9.60993 56 8.29019 55.1333 7.50748 53.4C6.72472 51.6667 6.97779 50.0889 8.26668 48.6667L24.8 30V12H21.3333C20.7667 12 20.2917 11.8072 19.9083 11.4217C19.525 11.0361 19.3333 10.5583 19.3333 9.98833C19.3333 9.41833 19.525 8.94444 19.9083 8.56667C20.2917 8.18889 20.7667 8 21.3333 8H42.6667C43.2333 8 43.7083 8.19278 44.0917 8.57833C44.475 8.96393 44.6667 9.44171 44.6667 10.0117C44.6667 10.5817 44.475 11.0556 44.0917 11.4333C43.7083 11.8111 43.2333 12 42.6667 12H39.2V30L55.7333 48.6667C57.0222 50.0889 57.2753 51.6667 56.4925 53.4C55.7098 55.1333 54.3901 56 52.5333 56H11.4667ZM16.1333 50H47.8667L37.2 37.6667H26.8L16.1333 50ZM10.6667 52H53.3334L35.2 31.4667V12H28.8V31.4667L10.6667 52Z" fill="#F1F1F1"/>
</g>
</svg>
