<svg width="33" height="32" viewBox="0 0 33 32" fill="none" xmlns="http://www.w3.org/2000/svg">
<path fill-rule="evenodd" clip-rule="evenodd" d="M16.0322 24C20.4505 24 24.0322 20.4183 24.0322 16C24.0322 11.5817 20.4505 8 16.0322 8C11.6139 8 8.03223 11.5817 8.03223 16C8.03223 20.4183 11.6139 24 16.0322 24ZM16.0322 21.3333C18.9777 21.3333 21.3656 18.9455 21.3656 16C21.3656 13.0545 18.9777 10.6667 16.0322 10.6667C13.0867 10.6667 10.6989 13.0545 10.6989 16C10.6989 18.9455 13.0867 21.3333 16.0322 21.3333Z" fill="#4E9F3D" fill-opacity="0.6"/>
<path d="M24.0322 6.66675C23.2958 6.66675 22.6989 7.26371 22.6989 8.00008C22.6989 8.73645 23.2958 9.33341 24.0322 9.33341C24.7686 9.33341 25.3656 8.73645 25.3656 8.00008C25.3656 7.26371 24.7686 6.66675 24.0322 6.66675Z" fill="#4E9F3D" fill-opacity="0.6"/>
<path fill-rule="evenodd" clip-rule="evenodd" d="M2.23743 5.70133C1.36548 7.41262 1.36548 9.65284 1.36548 14.1333V17.8666C1.36548 22.347 1.36548 24.5872 2.23743 26.2984C3.00441 27.8038 4.22825 29.0276 5.73356 29.7946C7.44485 30.6666 9.68506 30.6666 14.1655 30.6666H17.8988C22.3792 30.6666 24.6195 30.6666 26.3307 29.7946C27.836 29.0276 29.0599 27.8038 29.8268 26.2984C30.6988 24.5872 30.6988 22.347 30.6988 17.8666V14.1333C30.6988 9.65284 30.6988 7.41262 29.8268 5.70133C29.0599 4.19602 27.836 2.97219 26.3307 2.2052C24.6195 1.33325 22.3792 1.33325 17.8988 1.33325H14.1655C9.68506 1.33325 7.44485 1.33325 5.73356 2.2052C4.22825 2.97219 3.00441 4.19602 2.23743 5.70133ZM17.8988 3.99992H14.1655C11.8813 3.99992 10.3285 4.002 9.12825 4.10005C7.95913 4.19557 7.36126 4.3687 6.9442 4.58121C5.94066 5.09254 5.12477 5.90844 4.61344 6.91197C4.40093 7.32904 4.2278 7.9269 4.13228 9.09602C4.03422 10.2963 4.03214 11.849 4.03214 14.1333V17.8666C4.03214 20.1508 4.03422 21.7035 4.13228 22.9038C4.2278 24.073 4.40093 24.6708 4.61344 25.0879C5.12477 26.0914 5.94066 26.9072 6.9442 27.4186C7.36126 27.6311 7.95913 27.8043 9.12825 27.8998C10.3285 27.9978 11.8813 27.9999 14.1655 27.9999H17.8988C20.1831 27.9999 21.7357 27.9978 22.936 27.8998C24.1052 27.8043 24.7031 27.6311 25.1201 27.4186C26.1236 26.9072 26.9395 26.0914 27.4508 25.0879C27.6633 24.6708 27.8365 24.073 27.932 22.9038C28.03 21.7035 28.0321 20.1508 28.0321 17.8666V14.1333C28.0321 11.849 28.03 10.2963 27.932 9.09602C27.8365 7.9269 27.6633 7.32904 27.4508 6.91197C26.9395 5.90844 26.1236 5.09254 25.1201 4.58121C24.7031 4.3687 24.1052 4.19557 22.936 4.10005C21.7357 4.002 20.1831 3.99992 17.8988 3.99992Z" fill="#4E9F3D" fill-opacity="0.6"/>
</svg>
