<svg width="50" height="50" viewBox="0 0 50 50" fill="none" xmlns="http://www.w3.org/2000/svg">
<rect width="50" height="50" rx="8" fill="url(#paint0_linear_883_3052)"/>
<path d="M11.9778 41.1192C11.9799 38.6015 11.9248 36.0839 11.855 33.567C11.786 31.0592 11.7031 28.5513 11.6513 26.0426C11.6262 24.845 11.5978 23.6466 11.607 22.449C11.6111 21.9102 11.6259 21.3714 11.6636 20.8335C11.6824 20.5698 11.7062 20.3061 11.7373 20.044C11.7446 19.9828 11.7577 19.9208 11.7602 19.8595C11.7503 20.0946 11.761 19.8563 11.7692 19.8024C11.7896 19.6652 11.8125 19.5281 11.8378 19.3918C11.9335 18.8734 12.0627 18.3615 12.2392 17.8643C12.28 17.75 12.3234 17.6357 12.3691 17.5231C12.3797 17.4961 12.3953 17.4667 12.4043 17.439C12.3536 17.6063 12.3634 17.5337 12.3838 17.4888C12.4149 17.4194 12.4459 17.35 12.4786 17.2814C12.5906 17.0463 12.7148 16.8169 12.8512 16.5949C12.9068 16.5051 12.964 16.4169 13.0244 16.3303C13.053 16.2895 13.0816 16.2495 13.1102 16.2095C13.1282 16.1842 13.147 16.1597 13.1658 16.1352C13.2377 16.0373 13.0751 16.2495 13.1298 16.1809C13.2655 16.012 13.406 15.8479 13.5571 15.6927C13.7083 15.5376 13.8578 15.398 14.0179 15.2625C14.0555 15.2307 14.0939 15.1988 14.1323 15.1678C14.1519 15.1523 14.1707 15.1368 14.1903 15.1213C14.2793 15.0486 14.1339 15.1662 14.129 15.1678C14.165 15.1596 14.2181 15.1008 14.2483 15.0788C14.2981 15.0421 14.3488 15.0061 14.3994 14.971C14.7515 14.7277 15.1265 14.5171 15.517 14.3416C15.5415 14.3301 15.7147 14.2558 15.5832 14.3113C15.4516 14.3669 15.6354 14.2909 15.6681 14.2779C15.7719 14.2371 15.8772 14.1987 15.9826 14.1628C16.182 14.095 16.3854 14.0362 16.5896 13.9864C16.7938 13.9366 17.0005 13.8966 17.2088 13.8655C17.2333 13.8623 17.2578 13.859 17.2823 13.8549C17.0585 13.8908 17.1467 13.8729 17.1973 13.8672C17.2529 13.8606 17.3076 13.8541 17.3632 13.8492C17.4734 13.8386 17.5845 13.8304 17.6948 13.8255C17.9039 13.8157 18.113 13.8157 18.3213 13.8255C18.4259 13.8304 18.5296 13.8385 18.6334 13.8483C18.6824 13.8532 18.7306 13.8589 18.7796 13.8646C18.8964 13.8785 18.6954 13.8532 18.6938 13.8524C18.7281 13.8614 18.7681 13.863 18.8033 13.8687C19.2158 13.934 19.6209 14.0417 20.0097 14.1936C20.0326 14.2025 20.0554 14.2115 20.0783 14.2205C20.2065 14.2703 19.9346 14.1576 20.0228 14.1968C20.0677 14.2172 20.1134 14.2368 20.1584 14.2572C20.2645 14.3062 20.3683 14.3584 20.4712 14.414C20.6778 14.525 20.8779 14.6482 21.0707 14.7829C21.1148 14.8131 21.1581 14.845 21.2014 14.876C21.2504 14.9119 21.3778 15.0311 21.212 14.8825C21.301 14.9625 21.399 15.0335 21.4889 15.1127C21.6595 15.2621 21.8221 15.4205 21.9764 15.5862C22.054 15.6694 22.1292 15.7543 22.2027 15.8409C22.237 15.8817 22.2713 15.9233 22.3047 15.9649C22.3219 15.9862 22.3382 16.0066 22.3546 16.0278C22.4272 16.12 22.3529 16.0319 22.326 15.9902C22.4526 16.1878 22.602 16.3715 22.7269 16.5715C22.8519 16.7715 22.9687 16.978 23.0765 17.1894C23.1263 17.2858 23.1736 17.3837 23.2194 17.4825C23.2422 17.5315 23.2643 17.5813 23.2863 17.6311C23.2969 17.6556 23.3067 17.6817 23.319 17.7062C23.2202 17.5078 23.2888 17.6343 23.3084 17.6817C23.4864 18.1176 23.6292 18.5682 23.737 19.0262C23.79 19.2523 23.8349 19.4793 23.8708 19.7087C23.8798 19.7675 23.8953 19.8303 23.8977 19.8907C23.8977 19.8842 23.8733 19.6948 23.8871 19.8164C23.8904 19.8434 23.8937 19.8703 23.8969 19.8973C23.9108 20.0189 23.9222 20.1397 23.9312 20.2622C23.9719 20.8157 23.9661 21.3732 23.9227 21.9267C23.9112 22.0671 23.8982 22.2076 23.8818 22.3472C23.8752 22.4059 23.8801 22.517 23.8548 22.5692C23.8605 22.5586 23.881 22.3872 23.8605 22.5219C23.854 22.5627 23.8483 22.6035 23.8425 22.6451C23.7984 22.9325 23.7444 23.2182 23.6823 23.5023C23.5605 24.0566 23.4068 24.6036 23.2278 25.1424C23.1355 25.4208 23.0366 25.6975 22.932 25.971C22.8838 26.0967 22.8347 26.2217 22.7849 26.3457C22.7563 26.416 22.7277 26.4853 22.6991 26.5556C22.686 26.5866 22.6721 26.6176 22.6599 26.6486C22.6893 26.5735 22.7056 26.5417 22.6648 26.6356C22.4417 27.1556 22.2006 27.6683 21.9448 28.1736C21.7054 28.6463 21.4497 29.1108 21.1629 29.5574C21.0223 29.7762 20.872 29.9876 20.7176 30.1966C20.6555 30.2807 20.8328 30.0521 20.7347 30.1746C20.716 30.1983 20.6972 30.2219 20.6776 30.2464C20.6392 30.2938 20.6008 30.3411 20.5615 30.3877C20.4733 30.4922 20.3826 30.595 20.2895 30.6946C20.113 30.8832 19.9259 31.062 19.729 31.2294C19.6825 31.2686 19.6351 31.3069 19.5877 31.3453C19.4937 31.422 19.6236 31.3167 19.6343 31.3102C19.6106 31.3257 19.5877 31.3453 19.5648 31.3616C19.4594 31.4384 19.3508 31.5119 19.2397 31.5812C19.0224 31.7168 18.7961 31.8319 18.5633 31.9364C18.4767 31.9756 18.707 31.8792 18.618 31.9127C18.591 31.9233 18.5641 31.934 18.5371 31.9446C18.4758 31.9682 18.4146 31.9903 18.3525 32.0115C18.2291 32.0532 18.1042 32.0899 17.9775 32.1217C17.8656 32.1495 17.7529 32.1732 17.6394 32.1928C17.6132 32.1969 17.5805 32.1985 17.5544 32.2067C17.7202 32.1585 17.6818 32.1911 17.6222 32.1977C17.5511 32.205 17.4801 32.2124 17.409 32.2173C17.1648 32.2336 16.9295 32.2075 16.6861 32.1969C16.9132 32.2075 16.7367 32.2026 16.6714 32.1904C16.606 32.1781 16.5464 32.1651 16.4843 32.1496C16.3594 32.1186 16.2368 32.0802 16.116 32.0353C15.9412 31.9692 16.2622 32.1063 16.1143 32.0361C16.0702 32.0157 16.0269 31.9945 15.9836 31.9725C15.8873 31.9218 15.7933 31.8655 15.7035 31.8043C15.6545 31.7708 15.5075 31.6394 15.6904 31.801C15.6537 31.7692 15.6145 31.7398 15.5777 31.708C15.4952 31.6361 15.416 31.5594 15.3409 31.4794C15.3074 31.4435 15.2755 31.4076 15.2437 31.37C15.2282 31.3512 15.2126 31.3325 15.1971 31.3137C15.1228 31.2263 15.2429 31.3741 15.2445 31.3757C15.1702 31.3039 15.1138 31.1921 15.0607 31.1039C15.0109 31.0206 14.9644 30.9357 14.9219 30.8484C14.9113 30.8263 14.9015 30.8043 14.8909 30.7831C14.8321 30.6614 14.948 30.9317 14.9154 30.8427C14.8966 30.7921 14.8762 30.7423 14.8591 30.6908C14.8264 30.5953 14.7986 30.4974 14.7766 30.3986C14.766 30.352 14.7578 30.3055 14.7489 30.259C14.7374 30.1994 14.7415 30.1063 14.757 30.3316C14.7554 30.3022 14.7505 30.2729 14.748 30.2443C14.7391 30.1455 14.7366 30.0459 14.7399 29.9463C14.7416 29.8998 14.7448 29.8533 14.7489 29.8067C14.7506 29.7879 14.7489 29.7528 14.7563 29.7373C14.7579 29.7341 14.7211 29.9439 14.7457 29.8288C14.7653 29.7365 14.7833 29.6451 14.8119 29.5553C14.8274 29.5047 14.8486 29.4549 14.865 29.4042C14.892 29.3202 14.7906 29.5585 14.8331 29.481C14.8478 29.4549 14.8593 29.4263 14.8723 29.3993C15.0431 29.0557 14.9762 28.5879 14.6087 28.3944C14.2762 28.2189 13.7853 28.2908 13.6031 28.6582C12.6086 30.6558 14.0353 33.0697 16.1141 33.5717C17.2764 33.8516 18.4854 33.6214 19.5433 33.0956C20.6012 32.5698 21.4288 31.7158 22.1102 30.7745C22.7916 29.8332 23.2631 28.8707 23.7207 27.8625C24.2347 26.7302 24.6858 25.5644 24.9907 24.357C25.5474 22.1528 25.636 19.7796 24.8522 17.6187C24.1541 15.6938 22.8369 13.9142 20.9525 13.0171C19.2071 12.187 17.1511 12.1544 15.349 12.8386C14.4185 13.1914 13.5673 13.6935 12.8271 14.3621C12.0869 15.0307 11.497 15.8765 11.0974 16.795C10.1683 18.9347 10.1172 21.2891 10.143 23.5855C10.1719 26.1946 10.2491 28.8028 10.3254 31.4111C10.4017 34.0194 10.4764 36.6089 10.5013 39.209C10.5077 39.8474 10.5109 40.4857 10.51 41.125C10.5099 41.5095 10.848 41.8776 11.245 41.8596C11.642 41.8417 11.9802 41.5371 11.9803 41.1249L11.9778 41.1192Z" fill="white"/>
<path d="M28.3943 32.1728C28.3963 29.8576 28.3379 27.5433 28.2713 25.2289C28.2055 22.9292 28.1316 20.6303 28.1018 18.3298C28.0873 17.2041 28.0752 16.0734 28.2233 14.9542L28.1971 15.1493C28.2952 14.426 28.4628 13.7125 28.7472 13.039L28.6728 13.2145C28.8575 12.7851 29.0854 12.3752 29.3706 12.0038L29.2554 12.1524C29.5258 11.8046 29.8395 11.4944 30.1867 11.2233L30.038 11.3384C30.4277 11.038 30.8549 10.7906 31.3075 10.5987L31.1318 10.673C31.604 10.4754 32.0982 10.3399 32.6054 10.2713L32.4102 10.2974C32.8741 10.237 33.343 10.2345 33.8069 10.2957L33.6117 10.2696C34.0258 10.3267 34.4293 10.4337 34.8156 10.5945L34.64 10.5202C35.0321 10.6867 35.3988 10.9055 35.7369 11.165L35.5882 11.0499C35.9631 11.3422 36.2963 11.6826 36.5878 12.0589L36.4727 11.9103C36.8116 12.3536 37.0892 12.8393 37.308 13.3528L37.2337 13.1773C37.4909 13.7879 37.664 14.4304 37.7521 15.0867L37.726 14.8916C37.8263 15.6647 37.8058 16.4492 37.7027 17.2207L37.7289 17.0256C37.5637 18.2175 37.1975 19.371 36.731 20.4772L36.8053 20.3017C36.36 21.3507 35.8542 22.4079 35.1589 23.3166L35.2741 23.168C34.9735 23.5566 34.6353 23.9134 34.2472 24.2146L34.3959 24.0995C34.1051 24.3216 33.7906 24.5053 33.454 24.6482L33.6297 24.5739C33.3266 24.6996 33.0113 24.7894 32.687 24.836L32.8822 24.8098C32.5964 24.8482 32.3088 24.8515 32.023 24.8131L32.2182 24.8393C31.9911 24.8066 31.7706 24.7479 31.5574 24.6621L31.733 24.7364C31.5517 24.6597 31.3835 24.5609 31.2258 24.4417L31.3745 24.5568C31.203 24.4238 31.0502 24.2703 30.9163 24.0989L31.0315 24.2475C30.9 24.0752 30.7906 23.8899 30.7048 23.6915L30.7791 23.8671C30.7008 23.6801 30.6452 23.4858 30.6167 23.285L30.6428 23.4801C30.6191 23.3013 30.6184 23.1217 30.6429 22.9429L30.6167 23.1381C30.6396 22.987 30.6797 22.8409 30.7385 22.6988L30.6641 22.8744C30.6797 22.8384 30.696 22.8033 30.7132 22.7691C30.8014 22.5911 30.8415 22.3992 30.7876 22.2025C30.7411 22.0319 30.6088 21.8474 30.4495 21.7633C30.1171 21.5878 29.6262 21.6597 29.444 22.027C29.2422 22.4328 29.1285 22.8826 29.1587 23.3381C29.1888 23.7937 29.3145 24.2255 29.5309 24.6304C29.9465 25.4084 30.6995 25.9978 31.5571 26.2051C32.5348 26.4409 33.5469 26.2482 34.4365 25.8065C35.326 25.3648 35.9967 24.6603 36.5613 23.8798C37.0874 23.1524 37.4927 22.3409 37.8629 21.5262C38.2837 20.6004 38.6539 19.6469 38.9032 18.6599C39.3593 16.8557 39.4331 14.9087 38.7914 13.1388C38.215 11.5511 37.1314 10.0768 35.5755 9.33641C34.1315 8.64993 32.4317 8.61083 30.9385 9.17746C30.1625 9.47221 29.4559 9.88696 28.8383 10.4446C28.2207 11.0022 27.746 11.6871 27.4191 12.439C27.2238 12.8888 27.0629 13.3468 26.9501 13.8236C26.8373 14.3003 26.7653 14.7975 26.7137 15.2898C26.6188 16.1886 26.6187 17.0948 26.6283 17.9976C26.6517 20.1063 26.7142 22.2141 26.7759 24.322C26.8368 26.4225 26.8977 28.523 26.9177 30.6243C26.9226 31.1402 26.9249 31.6562 26.9248 32.1721C26.9248 32.5566 27.2629 32.9248 27.6598 32.9068C28.0568 32.8888 28.395 32.5843 28.3951 32.172L28.3943 32.1728Z" fill="white"/>
<path fill-rule="evenodd" clip-rule="evenodd" d="M35.4834 35.3587C35.7207 35.6304 35.6926 36.0431 35.4208 36.2803C31.8225 39.4205 27.4628 40.3287 24.0488 40.4656C22.3375 40.5342 20.8486 40.4099 19.7863 40.2683C19.2546 40.1974 18.8283 40.1221 18.5328 40.0639C18.3851 40.0348 18.2699 40.01 18.1905 39.9921C18.1508 39.9832 18.12 39.976 18.0985 39.9709C18.0878 39.9684 18.0794 39.9663 18.0734 39.9649L18.0661 39.9631L18.0631 39.9623C18.0628 39.9622 18.0625 39.9622 18.2213 39.3285L18.0625 39.9622C17.7124 39.8746 17.4997 39.5199 17.5874 39.17C17.6751 38.8201 18.0297 38.6075 18.3797 38.6948L18.38 38.6949M18.38 38.6949L18.3835 38.6958C18.3871 38.6966 18.3929 38.698 18.4011 38.7C18.4175 38.7039 18.443 38.7098 18.4773 38.7176C18.546 38.733 18.6498 38.7554 18.7857 38.7822C19.0575 38.8357 19.457 38.9064 19.9592 38.9734C20.9647 39.1074 22.3766 39.2252 23.9967 39.1603C27.2452 39.0301 31.2704 38.1682 34.5614 35.2963C34.8333 35.0591 35.2461 35.087 35.4834 35.3587" fill="white"/>
<defs>
<linearGradient id="paint0_linear_883_3052" x1="25" y1="0" x2="25" y2="50" gradientUnits="userSpaceOnUse">
<stop stop-color="#4E9F3D"/>
<stop offset="1" stop-color="#306425"/>
</linearGradient>
</defs>
</svg>
