<svg width="48" height="48" viewBox="0 0 48 48" fill="none" xmlns="http://www.w3.org/2000/svg">
<mask id="mask0_887_3264" style="mask-type:alpha" maskUnits="userSpaceOnUse" x="0" y="0" width="48" height="48">
<rect width="48" height="48" fill="#D9D9D9"/>
</mask>
<g mask="url(#mask0_887_3264)">
<path d="M7.5 36C7.075 36 6.71875 35.8554 6.43125 35.5663C6.14375 35.2771 6 34.9187 6 34.4913C6 34.0638 6.14375 33.7083 6.43125 33.425C6.71875 33.1417 7.075 33 7.5 33H30.5C30.925 33 31.2812 33.1446 31.5688 33.4338C31.8563 33.7229 32 34.0813 32 34.5087C32 34.9362 31.8563 35.2917 31.5688 35.575C31.2812 35.8583 30.925 36 30.5 36H7.5ZM38.85 32.3L31.5 25C31.2 24.7 31.05 24.35 31.05 23.95C31.05 23.55 31.2 23.2 31.5 22.9L38.8 15.6C39.1 15.3 39.4583 15.15 39.875 15.15C40.2917 15.15 40.65 15.3 40.95 15.6C41.25 15.9 41.4 16.2583 41.4 16.675C41.4 17.0917 41.25 17.45 40.95 17.75L34.75 23.95L41 30.2C41.3 30.5 41.45 30.85 41.45 31.25C41.45 31.65 41.3 32 41 32.3C40.7 32.6 40.3417 32.75 39.925 32.75C39.5083 32.75 39.15 32.6 38.85 32.3ZM7.5 25.4C7.075 25.4 6.71875 25.2554 6.43125 24.9663C6.14375 24.6771 6 24.3187 6 23.8913C6 23.4638 6.14375 23.1083 6.43125 22.825C6.71875 22.5417 7.075 22.4 7.5 22.4H24.5C24.925 22.4 25.2812 22.5446 25.5688 22.8337C25.8563 23.1229 26 23.4813 26 23.9087C26 24.3362 25.8563 24.6917 25.5688 24.975C25.2812 25.2583 24.925 25.4 24.5 25.4H7.5ZM7.5 15C7.075 15 6.71875 14.8554 6.43125 14.5663C6.14375 14.2771 6 13.9187 6 13.4913C6 13.0638 6.14375 12.7083 6.43125 12.425C6.71875 12.1417 7.075 12 7.5 12H30.5C30.925 12 31.2812 12.1446 31.5688 12.4337C31.8563 12.7229 32 13.0813 32 13.5087C32 13.9362 31.8563 14.2917 31.5688 14.575C31.2812 14.8583 30.925 15 30.5 15H7.5Z" fill="url(#paint0_linear_887_3264)"/>
</g>
<defs>
<linearGradient id="paint0_linear_887_3264" x1="23.725" y1="12" x2="23.725" y2="36" gradientUnits="userSpaceOnUse">
<stop stop-color="#4E9F3D"/>
<stop offset="1" stop-color="#306425"/>
</linearGradient>
</defs>
</svg>
