<svg width="64" height="64" viewBox="0 0 64 64" fill="none" xmlns="http://www.w3.org/2000/svg">
<mask id="mask0_887_3287" style="mask-type:alpha" maskUnits="userSpaceOnUse" x="0" y="0" width="64" height="64">
<rect width="64" height="64" fill="#D9D9D9"/>
</mask>
<g mask="url(#mask0_887_3287)">
<path d="M12 56C10.9 56 9.95833 55.6083 9.175 54.825C8.39167 54.0417 8 53.1 8 52V12C8 10.9 8.39167 9.95833 9.175 9.175C9.95833 8.39167 10.9 8 12 8H52C53.1 8 54.0417 8.39167 54.825 9.175C55.6083 9.95833 56 10.9 56 12V52C56 53.1 55.6083 54.0417 54.825 54.825C54.0417 55.6083 53.1 56 52 56H12ZM12 44C12 47.7712 12 49.6569 13.1716 50.8284C14.3431 52 16.2288 52 20 52H44C47.7712 52 49.6569 52 50.8284 50.8284C52 49.6569 52 47.7712 52 44V25.3333C52 21.5621 52 19.6765 50.8284 18.5049C49.6569 17.3333 47.7712 17.3333 44 17.3333H20C16.2288 17.3333 14.3431 17.3333 13.1716 18.5049C12 19.6765 12 21.5621 12 25.3333V44ZM32.0027 45C28.4454 45 25.2667 44.0411 22.4667 42.1232C20.6312 40.866 19.1204 39.3634 17.9343 37.6155C17.1516 36.4621 16.7603 35.8854 16.7605 34.656C16.7607 33.4266 17.152 32.8504 17.9346 31.6978C19.1202 29.9518 20.63 28.4525 22.4639 27.2C25.2621 25.2889 28.4399 24.3333 31.9973 24.3333C35.5546 24.3333 38.7333 25.2922 41.5333 27.2101C43.3688 28.4673 44.8796 29.9699 46.0657 31.7179C46.8484 32.8713 47.2397 33.4479 47.2395 34.6773C47.2393 35.9067 46.848 36.483 46.0654 37.6355C44.8798 39.3815 43.37 40.8808 41.5361 42.1333C38.7379 44.0444 35.5601 45 32.0027 45ZM32 41.6667C34.5333 41.6667 36.8655 41.0483 38.9966 39.8117C39.8409 39.3217 40.6126 38.7566 41.3115 38.1165C42.541 36.9903 43.1557 36.4272 43.1557 34.6667C43.1557 32.9061 42.541 32.343 41.3115 31.2169C40.6126 30.5767 39.8409 30.0116 38.9966 29.5217C36.8655 28.285 34.5333 27.6667 32 27.6667C29.4667 27.6667 27.1345 28.285 25.0034 29.5217C24.1591 30.0116 23.3874 30.5767 22.6885 31.2169C21.459 32.343 20.8443 32.9061 20.8443 34.6667C20.8443 36.4272 21.459 36.9903 22.6885 38.1165C23.3874 38.7566 24.1591 39.3217 25.0034 39.8117C27.1345 41.0483 29.4667 41.6667 32 41.6667ZM32.0079 38C32.936 38 33.7222 37.6752 34.3667 37.0255C35.0111 36.3758 35.3333 35.5869 35.3333 34.6588C35.3333 33.7307 35.0085 32.9444 34.3588 32.3C33.7092 31.6556 32.9203 31.3333 31.9921 31.3333C31.064 31.3333 30.2778 31.6582 29.6333 32.3079C28.9889 32.9575 28.6667 33.7464 28.6667 34.6745C28.6667 35.6026 28.9915 36.3889 29.6412 37.0333C30.2908 37.6778 31.0797 38 32.0079 38Z" fill="#F1F1F1"/>
</g>
</svg>
