<svg width="64" height="64" viewBox="0 0 64 64" fill="none" xmlns="http://www.w3.org/2000/svg">
<mask id="mask0_887_3314" style="mask-type:alpha" maskUnits="userSpaceOnUse" x="0" y="0" width="64" height="64">
<rect width="64" height="64" fill="#D9D9D9"/>
</mask>
<g mask="url(#mask0_887_3314)">
<path d="M14.6666 58.6666C13.6 58.6666 12.6666 58.2666 11.8666 57.4666C11.0666 56.6666 10.6666 55.7332 10.6666 54.6666V9.33325C10.6666 8.26659 11.0666 7.33325 11.8666 6.53325C12.6666 5.73325 13.6 5.33325 14.6666 5.33325H37.3333L53.3333 21.3333V39.3332H49.3333V23.9999H34.6666V9.33325H14.6666V54.6666H42V58.6666H14.6666ZM58.5333 58.7332L50 50.1999V58.5333H46V43.3332H61.2V47.3332H52.8L61.3333 55.8666L58.5333 58.7332Z" fill="#F1F1F1"/>
</g>
</svg>
