<svg width="33" height="32" viewBox="0 0 33 32" fill="none" xmlns="http://www.w3.org/2000/svg">
<path d="M8.08294 10.6748C8.2353 9.46987 9.8013 7.83219 11.0441 8.01391L11.0421 8.01192C12.2516 8.24176 13.2091 10.3235 13.7489 11.2595C14.1315 11.9387 13.8831 12.6268 13.5263 12.9172C13.0449 13.3051 12.2923 13.8404 12.4502 14.3779C12.7309 15.3333 16.0643 18.6667 17.7037 19.6143C18.3243 19.9729 18.7743 19.0269 19.1585 18.5423C19.4377 18.1695 20.1264 17.9467 20.804 18.3147C21.816 18.904 22.7693 19.5889 23.6509 20.36C24.0912 20.728 24.1945 21.2719 23.8895 21.8467C23.3521 22.8591 21.798 24.1941 20.6699 23.9228C18.6995 23.4491 10.7309 20.36 8.17138 11.4107C8.02743 10.9873 8.06367 10.8273 8.08294 10.6748Z" fill="#4E9F3D" fill-opacity="0.6"/>
<path fill-rule="evenodd" clip-rule="evenodd" d="M16.0642 30.6666C14.4328 30.6666 13.5301 30.4915 12.0642 29.9999L9.25682 31.4036C7.48374 32.2902 5.39758 31.0009 5.39758 29.0185V25.9999C2.52632 23.3226 1.39758 20.2355 1.39758 15.9999C1.39758 7.89974 7.96408 1.33325 16.0642 1.33325C24.1644 1.33325 30.7309 7.89974 30.7309 15.9999C30.7309 24.1001 24.1644 30.6666 16.0642 30.6666ZM8.06425 24.8403L7.21618 24.0495C4.98541 21.9695 4.06425 19.6441 4.06425 15.9999C4.06425 9.3725 9.43684 3.99992 16.0642 3.99992C22.6917 3.99992 28.0642 9.3725 28.0642 15.9999C28.0642 22.6274 22.6917 27.9999 16.0642 27.9999C14.75 27.9999 14.1336 27.8813 12.9122 27.4717L11.8622 27.1195L8.06425 29.0185V24.8403Z" fill="#4E9F3D" fill-opacity="0.6"/>
</svg>
